<svg width="30" height="31" viewBox="0 0 30 31" fill="none" xmlns="http://www.w3.org/2000/svg">
<g clip-path="url(#clip0_2_1274)">
<path d="M15 30.5C23.2843 30.5 30 23.7843 30 15.5C30 7.21573 23.2843 0.5 15 0.5C6.71573 0.5 0 7.21573 0 15.5C0 23.7843 6.71573 30.5 15 30.5Z" fill="url(#paint0_linear_2_1274)"/>
<path d="M19.2968 24.875H10.7032C7.90313 24.875 5.625 22.5971 5.625 19.7968V11.2032C5.625 8.40289 7.90313 6.125 10.7032 6.125H19.2968C22.0971 6.125 24.375 8.40289 24.375 11.2032V19.797C24.375 22.5971 22.0971 24.875 19.2968 24.875ZM10.7032 7.68758C8.76469 7.68758 7.18758 9.26469 7.18758 11.2032V19.797C7.18758 21.7355 8.76469 23.3127 10.7032 23.3127H19.2968C21.2353 23.3127 22.8124 21.7355 22.8124 19.797V11.2032C22.8124 9.26469 21.2353 7.68758 19.2968 7.68758H10.7032Z" fill="white"/>
<path d="M15 20.1875C12.4153 20.1875 10.3125 18.0845 10.3125 15.5C10.3125 12.9151 12.4153 10.8125 15 10.8125C17.5847 10.8125 19.6875 12.9151 19.6875 15.5C19.6875 18.0845 17.5847 20.1875 15 20.1875ZM15 12.3751C13.2769 12.3751 11.8751 13.7769 11.8751 15.5C11.8751 17.2234 13.2769 18.6249 15 18.6249C16.7231 18.6249 18.1249 17.2234 18.1249 15.5C18.1249 13.7769 16.7234 12.3751 15 12.3751Z" fill="white"/>
<path d="M19.9794 11.5937C20.5726 11.5937 21.0536 11.1128 21.0536 10.5195C21.0536 9.92631 20.5726 9.4454 19.9794 9.4454C19.3862 9.4454 18.9053 9.92631 18.9053 10.5195C18.9053 11.1128 19.3862 11.5937 19.9794 11.5937Z" fill="white"/>
</g>
<defs>
<linearGradient id="paint0_linear_2_1274" x1="6.39577" y1="27.7884" x2="23.6045" y2="3.21181" gradientUnits="userSpaceOnUse">
<stop stop-color="#FFB900"/>
<stop offset="1" stop-color="#9100EB"/>
</linearGradient>
<clipPath id="clip0_2_1274">
<rect width="30" height="30" fill="white" transform="translate(0 0.5)"/>
</clipPath>
</defs>
</svg>
