<svg width="197" height="24" viewBox="0 0 197 24" fill="none" xmlns="http://www.w3.org/2000/svg">
<path d="M0.896301 23V1.18181H9.6321C11.2372 1.18181 12.576 1.41974 13.6484 1.89559C14.7209 2.37144 15.527 3.03195 16.0668 3.87712C16.6065 4.71519 16.8764 5.6811 16.8764 6.77485C16.8764 7.62712 16.706 8.37641 16.3651 9.02272C16.0241 9.66192 15.5554 10.1875 14.9588 10.5994C14.3693 11.0043 13.6946 11.2919 12.9347 11.4623V11.6754C13.7656 11.7109 14.5433 11.9453 15.2678 12.3785C15.9993 12.8118 16.5923 13.419 17.0469 14.2003C17.5014 14.9744 17.7287 15.8977 17.7287 16.9702C17.7287 18.1278 17.441 19.1612 16.8658 20.0703C16.2976 20.9723 15.456 21.6861 14.3409 22.2116C13.2258 22.7372 11.8516 23 10.218 23H0.896301ZM5.50923 19.2287H9.26988C10.5554 19.2287 11.4929 18.9837 12.0824 18.4936C12.6719 17.9964 12.9666 17.3359 12.9666 16.5121C12.9666 15.9084 12.821 15.3757 12.5298 14.9141C12.2386 14.4524 11.8231 14.0902 11.2834 13.8274C10.7507 13.5646 10.1151 13.4332 9.37642 13.4332H5.50923V19.2287ZM5.50923 10.3118H8.92897C9.56107 10.3118 10.1222 10.2017 10.6122 9.98153C11.1094 9.75425 11.5 9.43465 11.7841 9.02272C12.0753 8.61079 12.2209 8.11718 12.2209 7.5419C12.2209 6.75354 11.9403 6.11789 11.3793 5.63493C10.8253 5.15198 10.0369 4.9105 9.0142 4.9105H5.50923V10.3118Z" fill="url(#paint0_linear_24_13)"/>
<path d="M20.7303 23V1.18181H29.3382C30.986 1.18181 32.3922 1.47655 33.557 2.06604C34.7289 2.64843 35.6202 3.47584 36.231 4.54829C36.8489 5.61363 37.1578 6.86718 37.1578 8.30894C37.1578 9.7578 36.8453 11.0043 36.2203 12.0483C35.5953 13.0852 34.6898 13.8807 33.5037 14.4347C32.3247 14.9886 30.8972 15.2656 29.2211 15.2656H23.4576V11.5582H28.4753C29.356 11.5582 30.0875 11.4375 30.6699 11.196C31.2523 10.9545 31.6855 10.5923 31.9696 10.1094C32.2608 9.62641 32.4064 9.02627 32.4064 8.30894C32.4064 7.58451 32.2608 6.97371 31.9696 6.47655C31.6855 5.97939 31.2488 5.60297 30.6593 5.34729C30.0769 5.08451 29.3418 4.95312 28.454 4.95312H25.3432V23H20.7303ZM32.513 13.071L37.9355 23H32.8432L27.5378 13.071H32.513Z" fill="url(#paint1_linear_24_13)"/>
<path d="M44.1784 23H39.2353L46.7672 1.18181H52.7118L60.2331 23H55.2899L49.8247 6.16761H49.6543L44.1784 23ZM43.8695 14.424H55.5456V18.0249H43.8695V14.424Z" fill="url(#paint2_linear_24_13)"/>
<path d="M81.1085 1.18181V23H77.1241L67.6319 9.26775H67.4721V23H62.8592V1.18181H66.9075L76.3251 14.9034H76.5169V1.18181H81.1085Z" fill="url(#paint3_linear_24_13)"/>
<path d="M92.6541 23H84.9197V1.18181H92.718C94.9126 1.18181 96.8018 1.6186 98.3857 2.49218C99.9695 3.35866 101.187 4.60511 102.04 6.23153C102.899 7.85795 103.329 9.80397 103.329 12.0696C103.329 14.3423 102.899 16.2954 102.04 17.929C101.187 19.5625 99.9624 20.816 98.3643 21.6896C96.7734 22.5632 94.87 23 92.6541 23ZM89.5327 19.0476H92.4623C93.826 19.0476 94.973 18.8061 95.9034 18.3231C96.8409 17.8331 97.544 17.0767 98.0128 16.054C98.4886 15.0241 98.7266 13.696 98.7266 12.0696C98.7266 10.4574 98.4886 9.13991 98.0128 8.11718C97.544 7.09445 96.8445 6.34161 95.9141 5.85866C94.9837 5.3757 93.8366 5.13423 92.473 5.13423H89.5327V19.0476Z" fill="url(#paint4_linear_24_13)"/>
<path d="M113.689 23V1.18181H118.302V19.1967H127.656V23H113.689Z" fill="url(#paint5_linear_24_13)"/>
<path d="M149.911 12.0909C149.911 14.4702 149.46 16.4943 148.558 18.1633C147.663 19.8324 146.441 21.1072 144.893 21.9879C143.352 22.8615 141.619 23.2983 139.694 23.2983C137.755 23.2983 136.015 22.8579 134.474 21.9773C132.933 21.0966 131.715 19.8217 130.82 18.1527C129.925 16.4837 129.478 14.4631 129.478 12.0909C129.478 9.71164 129.925 7.68749 130.82 6.01846C131.715 4.34942 132.933 3.07812 134.474 2.20454C136.015 1.32386 137.755 0.883514 139.694 0.883514C141.619 0.883514 143.352 1.32386 144.893 2.20454C146.441 3.07812 147.663 4.34942 148.558 6.01846C149.46 7.68749 149.911 9.71164 149.911 12.0909ZM145.234 12.0909C145.234 10.5497 145.003 9.24999 144.542 8.19175C144.087 7.13352 143.444 6.33096 142.613 5.78408C141.782 5.23721 140.809 4.96377 139.694 4.96377C138.579 4.96377 137.606 5.23721 136.775 5.78408C135.944 6.33096 135.298 7.13352 134.836 8.19175C134.382 9.24999 134.154 10.5497 134.154 12.0909C134.154 13.6321 134.382 14.9318 134.836 15.99C135.298 17.0483 135.944 17.8508 136.775 18.3977C137.606 18.9446 138.579 19.218 139.694 19.218C140.809 19.218 141.782 18.9446 142.613 18.3977C143.444 17.8508 144.087 17.0483 144.542 15.99C145.003 14.9318 145.234 13.6321 145.234 12.0909Z" fill="url(#paint6_linear_24_13)"/>
<path d="M167.795 8.23437C167.646 7.7159 167.437 7.2578 167.167 6.86008C166.897 6.45525 166.567 6.11434 166.176 5.83735C165.792 5.55326 165.352 5.33664 164.855 5.18749C164.365 5.03834 163.822 4.96377 163.225 4.96377C162.11 4.96377 161.13 5.24076 160.285 5.79474C159.447 6.34871 158.793 7.15482 158.324 8.21306C157.856 9.2642 157.621 10.5497 157.621 12.0696C157.621 13.5895 157.852 14.8821 158.314 15.9474C158.775 17.0128 159.429 17.826 160.274 18.3871C161.119 18.941 162.117 19.218 163.268 19.218C164.312 19.218 165.203 19.0334 165.942 18.6641C166.687 18.2876 167.255 17.7585 167.646 17.0767C168.044 16.3949 168.243 15.5888 168.243 14.6584L169.18 14.7969H163.555V11.3239H172.685V14.0724C172.685 15.99 172.28 17.6378 171.471 19.0156C170.661 20.3864 169.546 21.4446 168.126 22.1903C166.705 22.929 165.079 23.2983 163.246 23.2983C161.201 23.2983 159.404 22.8473 157.856 21.9453C156.307 21.0362 155.1 19.7472 154.233 18.0781C153.374 16.402 152.944 14.4133 152.944 12.1122C152.944 10.3437 153.2 8.76704 153.711 7.38209C154.23 5.99005 154.954 4.81107 155.885 3.84516C156.815 2.87925 157.898 2.14417 159.134 1.63991C160.37 1.13565 161.709 0.883514 163.15 0.883514C164.386 0.883514 165.537 1.06462 166.602 1.42684C167.667 1.78195 168.612 2.28621 169.436 2.93962C170.267 3.59303 170.945 4.37073 171.471 5.27272C171.996 6.16761 172.334 7.15482 172.483 8.23437H167.795Z" fill="url(#paint7_linear_24_13)"/>
<path d="M196.2 12.0909C196.2 14.4702 195.749 16.4943 194.847 18.1633C193.952 19.8324 192.73 21.1072 191.182 21.9879C189.641 22.8615 187.908 23.2983 185.983 23.2983C184.044 23.2983 182.304 22.8579 180.763 21.9773C179.222 21.0966 178.004 19.8217 177.109 18.1527C176.214 16.4837 175.767 14.4631 175.767 12.0909C175.767 9.71164 176.214 7.68749 177.109 6.01846C178.004 4.34942 179.222 3.07812 180.763 2.20454C182.304 1.32386 184.044 0.883514 185.983 0.883514C187.908 0.883514 189.641 1.32386 191.182 2.20454C192.73 3.07812 193.952 4.34942 194.847 6.01846C195.749 7.68749 196.2 9.71164 196.2 12.0909ZM191.523 12.0909C191.523 10.5497 191.292 9.24999 190.831 8.19175C190.376 7.13352 189.733 6.33096 188.902 5.78408C188.071 5.23721 187.098 4.96377 185.983 4.96377C184.868 4.96377 183.895 5.23721 183.064 5.78408C182.233 6.33096 181.587 7.13352 181.125 8.19175C180.671 9.24999 180.444 10.5497 180.444 12.0909C180.444 13.6321 180.671 14.9318 181.125 15.99C181.587 17.0483 182.233 17.8508 183.064 18.3977C183.895 18.9446 184.868 19.218 185.983 19.218C187.098 19.218 188.071 18.9446 188.902 18.3977C189.733 17.8508 190.376 17.0483 190.831 15.99C191.292 14.9318 191.523 13.6321 191.523 12.0909Z" fill="url(#paint8_linear_24_13)"/>
<defs>
<linearGradient id="paint0_linear_24_13" x1="0.896301" y1="12.0909" x2="196.2" y2="12.0909" gradientUnits="userSpaceOnUse">
<stop stop-color="#F11D28"/>
<stop offset="1" stop-color="#FFA12C"/>
</linearGradient>
<linearGradient id="paint1_linear_24_13" x1="0.896301" y1="12.0909" x2="196.2" y2="12.0909" gradientUnits="userSpaceOnUse">
<stop stop-color="#F11D28"/>
<stop offset="1" stop-color="#FFA12C"/>
</linearGradient>
<linearGradient id="paint2_linear_24_13" x1="0.896301" y1="12.0909" x2="196.2" y2="12.0909" gradientUnits="userSpaceOnUse">
<stop stop-color="#F11D28"/>
<stop offset="1" stop-color="#FFA12C"/>
</linearGradient>
<linearGradient id="paint3_linear_24_13" x1="0.896301" y1="12.0909" x2="196.2" y2="12.0909" gradientUnits="userSpaceOnUse">
<stop stop-color="#F11D28"/>
<stop offset="1" stop-color="#FFA12C"/>
</linearGradient>
<linearGradient id="paint4_linear_24_13" x1="0.896301" y1="12.0909" x2="196.2" y2="12.0909" gradientUnits="userSpaceOnUse">
<stop stop-color="#F11D28"/>
<stop offset="1" stop-color="#FFA12C"/>
</linearGradient>
<linearGradient id="paint5_linear_24_13" x1="0.896301" y1="12.0909" x2="196.2" y2="12.0909" gradientUnits="userSpaceOnUse">
<stop stop-color="#F11D28"/>
<stop offset="1" stop-color="#FFA12C"/>
</linearGradient>
<linearGradient id="paint6_linear_24_13" x1="0.896301" y1="12.0909" x2="196.2" y2="12.0909" gradientUnits="userSpaceOnUse">
<stop stop-color="#F11D28"/>
<stop offset="1" stop-color="#FFA12C"/>
</linearGradient>
<linearGradient id="paint7_linear_24_13" x1="0.896301" y1="12.0909" x2="196.2" y2="12.0909" gradientUnits="userSpaceOnUse">
<stop stop-color="#F11D28"/>
<stop offset="1" stop-color="#FFA12C"/>
</linearGradient>
<linearGradient id="paint8_linear_24_13" x1="0.896301" y1="12.0909" x2="196.2" y2="12.0909" gradientUnits="userSpaceOnUse">
<stop stop-color="#F11D28"/>
<stop offset="1" stop-color="#FFA12C"/>
</linearGradient>
</defs>
</svg>
