<svg width="80" height="80" viewBox="0 0 80 80" fill="none" xmlns="http://www.w3.org/2000/svg">
<g clip-path="url(#clip0_2_1124)">
<path d="M40 80C29.3158 80 19.2706 75.8392 11.7156 68.2844C4.16094 60.7294 0 50.6842 0 40C0 29.3158 4.16078 19.2706 11.7156 11.7156C19.2706 4.16094 29.3158 0 40 0C50.6842 0 60.7294 4.16078 68.2844 11.7156C75.8391 19.2706 80 29.3158 80 40C80 47.8955 77.6569 55.5744 73.2227 62.2058C72.2637 63.6408 70.3228 64.0259 68.888 63.067C67.4536 62.1077 67.0678 60.1666 68.0273 58.7323C71.7711 53.1317 73.75 46.6547 73.75 40C73.75 21.3903 58.6097 6.25 40 6.25C21.3903 6.25 6.25 21.3903 6.25 40C6.25 58.6097 21.3903 73.75 40 73.75C46.1725 73.75 52.2102 72.0691 57.4591 68.8898C58.935 67.9956 60.8563 68.4673 61.7511 69.9439C62.6453 71.4197 62.1734 73.3417 60.697 74.2352C54.4714 78.0066 47.3145 80 40 80ZM36.6028 54.7333L52.1814 45.708C54.2395 44.5153 55.4688 42.3816 55.4688 40C55.4688 37.6184 54.2395 35.4847 52.1808 34.292L36.6027 25.2667C34.5428 24.0734 32.0812 24.0705 30.0189 25.2594C27.9523 26.4502 26.7188 28.587 26.7188 30.9747V49.0253C26.7188 51.413 27.9523 53.5498 30.0189 54.7406C31.0486 55.3339 32.1766 55.6298 33.3044 55.6298C34.4372 55.6305 35.5706 55.3314 36.6028 54.7333ZM33.4698 30.6744L49.048 39.6997C49.0948 39.7272 49.2188 39.7986 49.2188 40C49.2188 40.2014 49.0948 40.2728 49.0478 40.3003L33.4698 49.3256C33.4205 49.3537 33.305 49.4208 33.1402 49.3256C32.9688 49.2267 32.9688 49.0856 32.9688 49.0253V30.9747C32.9688 30.9144 32.9688 30.7733 33.1403 30.6744C33.2038 30.6378 33.2598 30.6256 33.3075 30.6256C33.3838 30.625 33.4394 30.6573 33.4698 30.6744Z" fill="url(#paint0_linear_2_1124)"/>
</g>
<defs>
<linearGradient id="paint0_linear_2_1124" x1="0" y1="40" x2="80" y2="40" gradientUnits="userSpaceOnUse">
<stop stop-color="#F11D28"/>
<stop offset="1" stop-color="#FFA12C"/>
</linearGradient>
<clipPath id="clip0_2_1124">
<rect width="80" height="80" fill="white"/>
</clipPath>
</defs>
</svg>
