<svg width="30" height="31" viewBox="0 0 30 31" fill="none" xmlns="http://www.w3.org/2000/svg">
<rect y="0.5" width="30" height="30" rx="15" fill="#FF0000"/>
<path d="M19.974 9.77777H10.026C9.62845 9.77777 9.2348 9.85611 8.86754 10.0083C8.50028 10.1605 8.1666 10.3836 7.88559 10.6648C7.60457 10.946 7.38172 11.2798 7.22977 11.6472C7.07781 12.0145 6.99974 12.4082 7 12.8058V18.1858C6.99974 18.5833 7.07781 18.977 7.22977 19.3444C7.38172 19.7117 7.60457 20.0456 7.88559 20.3268C8.1666 20.608 8.50028 20.831 8.86754 20.9832C9.2348 21.1354 9.62845 21.2138 10.026 21.2138H19.974C20.3715 21.2138 20.7652 21.1354 21.1325 20.9832C21.4997 20.831 21.8334 20.608 22.1144 20.3268C22.3954 20.0456 22.6183 19.7117 22.7702 19.3444C22.9222 18.977 23.0003 18.5833 23 18.1858V12.8058C23.0003 12.4082 22.9222 12.0145 22.7702 11.6472C22.6183 11.2798 22.3954 10.946 22.1144 10.6648C21.8334 10.3836 21.4997 10.1605 21.1325 10.0083C20.7652 9.85611 20.3715 9.77777 19.974 9.77777ZM12.892 17.9478V13.0438L17.108 15.4958L12.892 17.9478Z" fill="white"/>
</svg>
