<svg width="46" height="14" viewBox="0 0 46 14" fill="none" xmlns="http://www.w3.org/2000/svg">
<path d="M16.1095 1.69285C14.2836 2.38087 12.1004 3.23906 9.74872 4.19208L7.95578 4.92399L7.00861 5.315L5.64621 5.88916L0 8.29774L5.24064 9.94453L7.67204 10.6955L9.34258 11.1992C11.5365 11.8544 13.5884 12.4373 15.3559 12.8998C18.8916 13.8245 21.2915 14.2661 21.4267 13.8321C21.5853 13.322 19.1835 12.3258 15.6379 11.1549C13.8647 10.5692 11.8058 9.94017 9.63783 9.30569L8.68825 9.03095C17.6274 9.46148 38.6594 8.27408 38.6594 8.27408C43.5271 8.27408 41.712 9.23165 45.177 8.27408C48.4943 7.35743 8.39782 6.4406 4.97536 8.04508L4.91365 8.02903L7.751 6.56818L11.6883 4.62781L15.4074 2.76612C19.7816 0.857115 18.5336 2.44656 21.2644 0.209921C21.9822 -0.377887 19.7607 0.316998 16.1095 1.69285Z" fill="#6B7280"/>
</svg>
