<svg width="60" height="61" viewBox="0 0 60 61" fill="none" xmlns="http://www.w3.org/2000/svg">
<path d="M30.0041 54.2499C26.7193 54.2499 23.6317 53.6266 20.7414 52.3799C17.851 51.1333 15.3368 49.4414 13.1988 47.3043C11.0607 45.1672 9.36802 42.6541 8.12081 39.765C6.8736 36.876 6.25 33.789 6.25 30.5042C6.25 27.2194 6.87344 24.1318 8.12031 21.2414C9.36719 18.3511 11.0594 15.8369 13.1969 13.6988C15.3344 11.5607 17.8479 9.86809 20.7375 8.62088C23.627 7.37367 26.7145 6.75006 29.9999 6.75006C32.6334 6.75006 35.1251 7.14589 37.4751 7.93756C39.825 8.72923 41.9807 9.83339 43.9422 11.2501L41.2308 14.0241C39.6154 12.9119 37.8656 12.0465 35.9813 11.4279C34.0971 10.8093 32.1033 10.5 29.9999 10.5C24.4583 10.5 19.7395 12.4479 15.8437 16.3438C11.9479 20.2396 9.99994 24.9583 9.99994 30.5C9.99994 36.0417 11.9479 40.7604 15.8437 44.6563C19.7395 48.5521 24.4583 50.5 29.9999 50.5C35.5416 50.5 40.2604 48.5521 44.1562 44.6563C48.052 40.7604 49.9999 36.0417 49.9999 30.5C49.9999 29.6218 49.9423 28.7533 49.8269 27.8944C49.7115 27.0355 49.5384 26.2005 49.3076 25.3894L52.3364 22.3366C52.7947 23.6218 53.1449 24.944 53.3869 26.303C53.6289 27.662 53.7499 29.061 53.7499 30.5C53.7499 33.7854 53.1265 36.8729 51.8799 39.7624C50.6332 42.652 48.9413 45.1656 46.8043 47.3031C44.6671 49.4406 42.154 51.1328 39.2649 52.3796C36.3759 53.6265 33.289 54.2499 30.0041 54.2499ZM26.4519 41.1346L16.6923 31.375L19.3269 28.7404L26.4519 35.8654L51.1153 11.1636L53.7499 13.7981L26.4519 41.1346Z" fill="url(#paint0_linear_12_207)"/>
<defs>
<linearGradient id="paint0_linear_12_207" x1="6.25" y1="30.5" x2="53.7499" y2="30.5" gradientUnits="userSpaceOnUse">
<stop stop-color="#F11D28"/>
<stop offset="1" stop-color="#FFA12C"/>
</linearGradient>
</defs>
</svg>
