<svg width="90" height="90" viewBox="0 0 90 90" fill="none" xmlns="http://www.w3.org/2000/svg">
<g clip-path="url(#clip0_114_1413)">
<path d="M45 90C69.8528 90 90 69.8528 90 45C90 20.1472 69.8528 0 45 0C20.1472 0 0 20.1472 0 45C0 69.8528 20.1472 90 45 90Z" fill="url(#paint0_linear_114_1413)"/>
<path d="M57.8904 73.125H32.1096C23.7094 73.125 16.875 66.2913 16.875 57.8904V32.1096C16.875 23.7087 23.7094 16.875 32.1096 16.875H57.8904C66.2913 16.875 73.125 23.7087 73.125 32.1096V57.8911C73.125 66.2913 66.2913 73.125 57.8904 73.125ZM32.1096 21.5627C26.2941 21.5627 21.5627 26.2941 21.5627 32.1096V57.8911C21.5627 63.7066 26.2941 68.438 32.1096 68.438H57.8904C63.7059 68.438 68.4373 63.7066 68.4373 57.8911V32.1096C68.4373 26.2941 63.7059 21.5627 57.8904 21.5627H32.1096Z" fill="white"/>
<path d="M45 59.0625C37.2459 59.0625 30.9375 52.7534 30.9375 45C30.9375 37.2452 37.2459 30.9375 45 30.9375C52.7541 30.9375 59.0625 37.2452 59.0625 45C59.0625 52.7534 52.7541 59.0625 45 59.0625ZM45 35.6252C39.8306 35.6252 35.6252 39.8306 35.6252 45C35.6252 50.1701 39.8306 54.3748 45 54.3748C50.1694 54.3748 54.3748 50.1701 54.3748 45C54.3748 39.8306 50.1701 35.6252 45 35.6252Z" fill="white"/>
<path d="M59.9397 33.2808C61.7194 33.2808 63.1621 31.8381 63.1621 30.0584C63.1621 28.2787 61.7194 26.8359 59.9397 26.8359C58.16 26.8359 56.7173 28.2787 56.7173 30.0584C56.7173 31.8381 58.16 33.2808 59.9397 33.2808Z" fill="white"/>
</g>
<defs>
<linearGradient id="paint0_linear_114_1413" x1="19.1873" y1="81.8653" x2="70.8135" y2="8.13544" gradientUnits="userSpaceOnUse">
<stop stop-color="#FFB900"/>
<stop offset="1" stop-color="#9100EB"/>
</linearGradient>
<clipPath id="clip0_114_1413">
<rect width="90" height="90" fill="white"/>
</clipPath>
</defs>
</svg>
