<svg width="82" height="20" viewBox="0 0 82 20" fill="none" xmlns="http://www.w3.org/2000/svg">
<g clip-path="url(#clip0_102_91)">
<path d="M48.3964 7.78176V7.78848C48.3559 7.78848 48.3151 7.7952 48.2745 7.7952C48.234 7.7952 48.1932 7.78848 48.1526 7.78848C45.7348 7.78848 44.238 9.29894 44.238 11.7235V12.9155C44.238 15.252 45.7552 16.7015 48.1865 16.7015C48.2362 16.7028 48.286 16.7005 48.3355 16.6947C48.3693 16.6947 48.3964 16.7015 48.4303 16.7015C50.0624 16.7015 51.2004 16.1056 51.9249 14.8728L50.4824 14.0396C50.0014 14.7506 49.3581 15.2858 48.437 15.2858C47.2044 15.2858 46.4662 14.5272 46.4662 13.2471V12.9085H52.1824V11.4998C52.1824 9.23774 50.6993 7.78176 48.3964 7.78176ZM48.2745 9.17031C49.3988 9.22454 50.0761 9.96945 50.0761 11.1953V11.5339H46.4595V11.3374C46.4595 9.98289 47.1029 9.22454 48.2745 9.17031ZM39.3956 7.78848C38.3188 7.78848 37.391 8.23557 36.9034 8.98048L36.7815 9.17007V7.99151H34.7361V19.4308H36.883V15.4351L37.0049 15.6179C37.4654 16.3019 38.3663 16.7082 39.416 16.7082H39.4703H39.5175C41.2852 16.7082 43.0664 15.5567 43.0664 12.9764V11.5272C43.0664 9.67139 41.9692 7.79544 39.5039 7.79544L39.4904 7.78872H39.4431L39.3956 7.78848ZM38.8945 9.40045C40.1408 9.42085 40.9128 10.2673 40.9128 11.622V12.868C40.9128 14.2224 40.1338 15.0624 38.8741 15.0895C37.7025 15.0691 36.883 14.1752 36.883 12.9018V11.6217C36.883 10.3349 37.7093 9.42757 38.8945 9.40045ZM66.7168 4.96436L62.5855 16.5052H64.9085L65.7009 14.0331H70.2114V14.0602L71.0038 16.5119H73.3269L69.1889 4.97108H68.945L68.9383 4.96436H66.7168ZM67.9496 6.94878L69.6765 12.401H66.2087L67.9496 6.94878ZM81.637 6.58976V4.96436H74.5527V6.58976H77.0382V14.8661H74.5527V16.4915H81.637V14.8661H79.1515V6.58976H81.637ZM58.3253 7.78872H58.2643H58.2305C57.0318 7.78872 56.1784 8.19501 55.7584 8.974L55.6298 9.2111V7.99199H53.5844V16.4984H55.7313V11.4324C55.7313 10.2404 56.3747 9.55644 57.4853 9.53604C58.5487 9.55644 59.1583 10.227 59.1583 11.3851V16.4984H61.3052V11.0191C61.3052 8.99416 60.1945 7.78848 58.332 7.78848L58.3253 7.78872ZM27.8344 4.72725C24.6714 4.72725 22.7007 6.69824 22.7007 9.87466V11.5881C22.7007 14.7646 24.6647 16.7353 27.8344 16.7353H27.8819H27.9292C31.0922 16.7353 33.0629 14.7646 33.0629 11.5881V9.87466C33.0629 6.69824 31.0922 4.72725 27.9292 4.72725H27.8819H27.8344ZM27.8819 6.44769C29.7648 6.46809 30.8484 7.67353 30.8484 9.75947V11.7101C30.8484 13.796 29.7648 15.0017 27.8819 15.0218C25.999 15.0014 24.9153 13.796 24.9153 11.7101V9.75947C24.9153 7.67353 25.999 6.46785 27.8819 6.44769ZM9.18242 5.72651e-05C6.99473 5.72651e-05 5.0511 1.40876 4.37363 3.48798C3.67838 3.63129 3.02163 3.92104 2.44708 4.33793C1.87253 4.75483 1.39336 5.28931 1.04146 5.90581C-0.0557494 7.80216 0.194793 10.1862 1.66469 11.8116C1.21088 13.173 1.36663 14.6628 2.09138 15.8956C3.18187 17.7987 5.37604 18.774 7.52317 18.3202C7.99328 18.8507 8.5711 19.275 9.21811 19.5646C9.86512 19.8542 10.5664 20.0026 11.2753 19.9998C13.463 19.9998 15.4066 18.5911 16.0841 16.5119C17.4928 16.2205 18.7052 15.34 19.4096 14.094C20.5135 12.1977 20.2629 9.8137 18.7933 8.18829V8.18157C19.0175 7.50863 19.0954 6.79558 19.0218 6.09011C18.9482 5.38464 18.7248 4.70301 18.3666 4.09082C17.2759 2.19447 15.0815 1.21893 12.9413 1.67274C12.469 1.14356 11.8896 0.720773 11.2416 0.432404C10.5936 0.144035 9.8917 -0.00333515 9.18242 5.72651e-05ZM9.18242 1.30053L9.1757 1.30725C10.0562 1.30725 10.9029 1.61203 11.5801 2.17431C11.553 2.18775 11.4987 2.22158 11.4582 2.24198L7.47589 4.53791C7.27263 4.6531 7.15072 4.8698 7.15072 5.10691V10.4979L5.43723 9.50916V5.05267C5.43685 4.05861 5.83108 3.10504 6.53331 2.40146C7.23555 1.69787 8.18835 1.30205 9.18242 1.30053ZM13.9797 2.87002C14.6396 2.86875 15.2882 3.04173 15.8598 3.37146C16.4315 3.7012 16.906 4.176 17.2353 4.74789C17.6687 5.50648 17.8312 6.3937 17.6822 7.2538C17.655 7.2334 17.601 7.20652 17.567 7.18612L13.5847 4.88324C13.4845 4.82658 13.3714 4.79681 13.2563 4.79681C13.1412 4.79681 13.028 4.82658 12.9278 4.88324L8.26136 7.57874V5.60103L12.115 3.37279C12.6816 3.04429 13.3247 2.8708 13.9797 2.86978V2.87002ZM4.13004 4.91708V9.65123C4.13004 9.88834 4.25195 10.0983 4.45522 10.2202L9.11474 12.909L7.3943 13.9045L3.54736 11.6829C2.68766 11.1847 2.06077 10.3657 1.80431 9.40573C1.54785 8.44576 1.68277 7.42324 2.17946 6.56265C2.61761 5.80317 3.30767 5.22118 4.13004 4.91708ZM13.0565 6.08868L16.9101 8.31021C18.705 9.34645 19.3143 11.6357 18.278 13.4305L18.2847 13.4372C17.8446 14.1958 17.1537 14.7782 16.3342 15.0763V10.3419C16.3342 10.1048 16.2123 9.8881 16.009 9.77314L11.3427 7.07741L13.0565 6.08868ZM10.2254 7.72105L12.1896 8.85881V11.1276L10.2254 12.2654L8.26136 11.1276V8.85881L10.2254 7.72105ZM13.3137 9.50916L15.0272 10.4979V14.9477C15.0272 17.0202 13.3476 18.6998 11.282 18.6998V18.6931C10.4083 18.6931 9.55487 18.3883 8.88436 17.8263C8.91147 17.8128 8.97243 17.7788 9.00627 17.7584L12.9886 15.4624C13.1918 15.3472 13.3205 15.1305 13.3135 14.8934L13.3137 9.50916ZM12.1961 12.4214V14.3988L8.34247 16.6204C6.54764 17.6499 4.25843 17.0403 3.22219 15.2522H3.2289C2.78877 14.5003 2.63279 13.6064 2.78182 12.7463C2.80893 12.7667 2.86317 12.7936 2.89701 12.814L6.87929 15.1169C6.97948 15.1735 7.09262 15.2033 7.20771 15.2033C7.32281 15.2033 7.43594 15.1735 7.53613 15.1169L12.1961 12.4214Z" fill="#0F0F0F"/>
</g>
<defs>
<clipPath id="clip0_102_91">
<rect width="81.2745" height="20" fill="white" transform="translate(0.362762)"/>
</clipPath>
</defs>
</svg>
