<svg width="90" height="90" viewBox="0 0 90 90" fill="none" xmlns="http://www.w3.org/2000/svg">
<rect width="90" height="90" rx="45" fill="#FF0000"/>
<path d="M59.922 27.8335H30.078C28.8854 27.8335 27.7044 28.0685 26.6026 28.5251C25.5008 28.9817 24.4998 29.6509 23.6568 30.4945C22.8137 31.3381 22.1452 32.3396 21.6893 33.4417C21.2334 34.5437 20.9992 35.7249 21 36.9175V53.0575C20.9992 54.2501 21.2334 55.4313 21.6893 56.5333C22.1452 57.6354 22.8137 58.6369 23.6568 59.4805C24.4998 60.3241 25.5008 60.9933 26.6026 61.4499C27.7044 61.9065 28.8854 62.1415 30.078 62.1415H59.922C61.1146 62.1415 62.2956 61.9065 63.3974 61.4499C64.4992 60.9933 65.5002 60.3241 66.3432 59.4805C67.1863 58.6369 67.8548 57.6354 68.3107 56.5333C68.7666 55.4313 69.0008 54.2501 69 53.0575V36.9175C69.0008 35.7249 68.7666 34.5437 68.3107 33.4417C67.8548 32.3396 67.1863 31.3381 66.3432 30.4945C65.5002 29.6509 64.4992 28.9817 63.3974 28.5251C62.2956 28.0685 61.1146 27.8335 59.922 27.8335ZM38.676 52.3435V37.6315L51.324 44.9875L38.676 52.3435Z" fill="white"/>
</svg>
