<svg width="24" height="24" viewBox="0 0 24 24" fill="none" xmlns="http://www.w3.org/2000/svg">
<mask id="mask0_104_1195" style="mask-type:luminance" maskUnits="userSpaceOnUse" x="0" y="0" width="24" height="24">
<path d="M0 0H24V24H0V0Z" fill="white"/>
</mask>
<g mask="url(#mask0_104_1195)">
<path d="M22.228 2.49732e-05H1.772C1.53931 -0.000237993 1.30885 0.0453828 1.09381 0.134278C0.878764 0.223174 0.68336 0.3536 0.518775 0.518091C0.35419 0.682583 0.223655 0.877913 0.134638 1.09291C0.045621 1.3079 -0.000130482 1.53833 1.13132e-06 1.77102V22.228C-0.000262042 22.4608 0.0453928 22.6913 0.134351 22.9065C0.223309 23.1216 0.353824 23.317 0.518421 23.4816C0.683019 23.6462 0.878467 23.7767 1.09357 23.8657C1.30868 23.9546 1.53923 24.0003 1.772 24H22.229C22.4617 24.0002 22.6921 23.9544 22.9071 23.8654C23.1221 23.7764 23.3174 23.6458 23.4819 23.4813C23.6464 23.3167 23.7769 23.1213 23.8657 22.9062C23.9546 22.6912 24.0003 22.4607 24 22.228V1.77102C24.0003 1.53825 23.9546 1.30771 23.8657 1.0926C23.7767 0.87749 23.6462 0.682043 23.4816 0.517445C23.317 0.352847 23.1215 0.222333 22.9064 0.133374C22.6913 0.0444163 22.4608 -0.0012386 22.228 -0.000975431V2.49732e-05ZM7.153 20.445H3.545V8.98302H7.153V20.445ZM5.346 7.39502C4.93665 7.39301 4.53708 7.26966 4.19782 7.04058C3.85856 6.8115 3.59484 6.48697 3.44 6.10802C3.28476 5.72923 3.24532 5.31292 3.32667 4.91172C3.40801 4.51051 3.60649 4.14244 3.897 3.85402C4.18723 3.56526 4.55657 3.36905 4.95831 3.2902C5.36005 3.21134 5.77616 3.25339 6.154 3.41102C6.532 3.56802 6.854 3.83402 7.081 4.17502C7.30815 4.51552 7.42925 4.91572 7.429 5.32502C7.43301 5.59903 7.38176 5.87103 7.27833 6.1248C7.1749 6.37856 7.0214 6.60889 6.827 6.80202C6.63264 6.99529 6.40133 7.14741 6.14687 7.2493C5.89241 7.35118 5.62004 7.40074 5.346 7.39502ZM20.453 20.455H16.846V14.193C16.846 12.346 16.061 11.776 15.048 11.776C13.978 11.776 12.928 12.583 12.928 14.239V20.454H9.32V8.99102H12.79V10.579H12.837C13.185 9.87402 14.405 8.66902 16.267 8.66902C18.28 8.66902 20.455 9.86402 20.455 13.364L20.453 20.455Z" fill="#0A66C2"/>
</g>
</svg>
