<svg width="22" height="22" viewBox="0 0 22 22" fill="none" xmlns="http://www.w3.org/2000/svg">
<path d="M20.1 15.6168C16.783 14.0108 16.254 11.5318 16.231 11.3478C16.203 11.1248 16.17 10.9498 16.416 10.7228C16.653 10.5038 17.704 9.85282 17.996 9.64982C18.478 9.31282 18.691 8.97582 18.534 8.56282C18.424 8.27682 18.158 8.16883 17.877 8.16883C17.7885 8.16926 17.7003 8.17931 17.614 8.19882C17.084 8.31382 16.57 8.57882 16.272 8.65082C16.2364 8.66007 16.1998 8.66511 16.163 8.66582C16.004 8.66582 15.944 8.59482 15.959 8.40382C15.996 7.82482 16.075 6.69482 15.984 5.63882C15.859 4.18682 15.39 3.46682 14.835 2.82982C14.566 2.52082 13.318 1.19482 10.911 1.19482C8.50398 1.19482 7.25698 2.52082 6.98998 2.82582C6.43298 3.46182 5.96498 4.18182 5.84098 5.63482C5.74998 6.69082 5.83198 7.81982 5.86598 8.39982C5.87698 8.58182 5.82098 8.66082 5.66198 8.66082C5.62485 8.66019 5.58793 8.65515 5.55198 8.64582C5.25498 8.57382 4.73998 8.30882 4.21098 8.19382C4.12463 8.17465 4.03644 8.16493 3.94798 8.16482C3.66598 8.16482 3.40098 8.27382 3.29098 8.55882C3.13398 8.97282 3.34598 9.30882 3.82898 9.64582L5.40898 10.7188C5.65398 10.9458 5.62198 11.1208 5.59398 11.3428C5.56998 11.5298 5.04098 14.0088 1.72498 15.6118C1.53098 15.7058 1.19998 15.9048 1.78298 16.2268C2.69798 16.7328 3.30698 16.6778 3.77998 16.9828C4.18198 17.2418 3.94398 17.7998 4.23598 18.0008C4.59498 18.2488 5.65598 17.9838 7.02698 18.4358C8.17598 18.8148 8.87498 19.8848 10.913 19.8848C12.951 19.8848 13.669 18.8098 14.798 18.4358C16.166 17.9828 17.23 18.2488 17.589 18.0008C17.881 17.7998 17.644 17.2408 18.045 16.9828C18.518 16.6778 19.127 16.7318 20.042 16.2268C20.624 15.9088 20.293 15.7098 20.099 15.6158L20.1 15.6168Z" fill="#FFFC00"/>
<path d="M21.542 15.429C21.393 15.024 21.11 14.807 20.787 14.628L20.623 14.542L20.33 14.393C19.323 13.859 18.538 13.186 17.993 12.388C17.8382 12.1632 17.704 11.9249 17.592 11.676C17.545 11.543 17.548 11.467 17.581 11.399C17.6142 11.3458 17.6581 11.3002 17.71 11.265L18.182 10.956L18.678 10.628C19.091 10.339 19.38 10.032 19.561 9.689C19.687 9.45199 19.7606 9.19061 19.7766 8.92263C19.7927 8.65465 19.7508 8.38636 19.654 8.136C19.38 7.416 18.7 6.969 17.876 6.969C17.7022 6.96894 17.5289 6.98738 17.359 7.024L17.224 7.056L17.177 5.532C17.022 3.733 16.392 2.79 15.735 2.038C15.314 1.567 14.819 1.168 14.269 0.858C13.272 0.289 12.142 0 10.91 0C9.67796 0 8.55296 0.289 7.55596 0.858C7.00396 1.168 6.50796 1.568 6.08696 2.04C5.42996 2.792 4.79996 3.737 4.64496 5.534C4.60096 6.046 4.58996 6.568 4.59696 7.058L4.46196 7.026C4.29207 6.98938 4.11876 6.97094 3.94496 6.971C3.11996 6.971 2.43896 7.418 2.16596 8.138C2.06896 8.389 2.02596 8.657 2.04196 8.925C2.05796 9.193 2.13096 9.455 2.25596 9.693C2.43696 10.036 2.72596 10.343 3.13896 10.632L3.63496 10.96L4.08896 11.257C4.14696 11.295 4.19696 11.345 4.23396 11.403C4.26896 11.475 4.26996 11.552 4.21796 11.694C4.10723 11.9376 3.97504 12.1708 3.82296 12.391C3.28996 13.171 2.52696 13.832 1.55296 14.361C1.03696 14.635 0.50096 14.817 0.27396 15.433C0.10296 15.898 0.21496 16.426 0.64896 16.872C0.808189 17.0381 0.992829 17.1779 1.19596 17.286C1.61882 17.5185 2.06848 17.6985 2.53496 17.822C2.63108 17.847 2.72234 17.8879 2.80496 17.943C2.96296 18.081 2.94096 18.29 3.15096 18.595C3.25661 18.7529 3.39094 18.8896 3.54696 18.998C3.98896 19.303 4.48596 19.323 5.01196 19.343C5.48796 19.361 6.02696 19.382 6.64196 19.585C6.89696 19.669 7.16196 19.832 7.46896 20.023C8.20596 20.476 9.21496 21.096 10.904 21.096C12.593 21.096 13.609 20.473 14.352 20.018C14.657 19.831 14.92 19.669 15.168 19.587C15.784 19.383 16.323 19.363 16.798 19.345C17.324 19.325 17.821 19.306 18.263 19C18.448 18.871 18.602 18.703 18.714 18.508C18.866 18.25 18.862 18.07 19.004 17.944C19.0816 17.8914 19.1674 17.8522 19.258 17.828C19.7308 17.704 20.1865 17.5223 20.615 17.287C20.831 17.171 21.025 17.019 21.19 16.837L21.195 16.831C21.602 16.395 21.705 15.882 21.538 15.429H21.542ZM20.041 16.236C19.125 16.742 18.517 16.687 18.044 16.992C17.642 17.251 17.88 17.809 17.588 18.011C17.229 18.259 16.168 17.993 14.797 18.446C13.666 18.82 12.945 19.895 10.911 19.895C8.87696 19.895 8.17296 18.822 7.02396 18.444C5.65596 17.991 4.59296 18.257 4.23296 18.009C3.94096 17.808 4.17796 17.249 3.77696 16.991C3.30296 16.686 2.69496 16.74 1.77896 16.237C1.19596 15.915 1.52696 15.716 1.72096 15.622C5.03696 14.016 5.56696 11.537 5.58996 11.353C5.61796 11.13 5.64996 10.955 5.40496 10.729C5.16796 10.51 4.11696 9.859 3.82496 9.656C3.34196 9.319 3.12996 8.982 3.28696 8.569C3.39596 8.283 3.66396 8.175 3.94396 8.175C4.03296 8.175 4.12096 8.185 4.20696 8.204C4.73696 8.319 5.25096 8.584 5.54796 8.656C5.58396 8.665 5.62096 8.67 5.65696 8.671C5.81596 8.671 5.87196 8.591 5.86096 8.409C5.82696 7.829 5.74496 6.7 5.83596 5.644C5.96096 4.192 6.42896 3.472 6.98496 2.835C7.25196 2.529 8.50696 1.203 10.907 1.203C13.307 1.203 14.565 2.523 14.832 2.828C15.389 3.464 15.857 4.184 15.981 5.636C16.072 6.692 15.993 7.822 15.956 8.401C15.943 8.592 16.001 8.663 16.16 8.663C16.1971 8.66236 16.234 8.65733 16.27 8.648C16.568 8.576 17.082 8.311 17.612 8.196C17.6983 8.17649 17.7865 8.16643 17.875 8.166C18.157 8.166 18.422 8.276 18.532 8.56C18.689 8.974 18.477 9.31 17.994 9.648L16.414 10.721C16.168 10.948 16.201 11.123 16.229 11.345C16.253 11.532 16.781 14.011 20.098 15.614C20.294 15.712 20.623 15.911 20.041 16.236Z" fill="black"/>
</svg>
