<svg width="22" height="24" viewBox="0 0 22 24" fill="none" xmlns="http://www.w3.org/2000/svg">
<path d="M8.75995 9.44889V8.51289C8.43528 8.46699 8.10785 8.44327 7.77995 8.44189C3.76695 8.44189 0.501953 11.7069 0.501953 15.7199C0.502285 16.8897 0.784901 18.0422 1.32581 19.0794C1.86671 20.1166 2.64993 21.008 3.60895 21.6779C2.35243 20.334 1.6539 18.5627 1.65495 16.7229C1.65495 12.7679 4.82695 9.54189 8.76095 9.44989L8.75995 9.44889Z" fill="#25F4EE"/>
<path d="M8.93399 20.047C9.79288 20.0456 10.6179 19.7118 11.2362 19.1157C11.8545 18.5195 12.2182 17.7073 12.251 16.849L12.258 1.003H15.153C15.0911 0.672236 15.0596 0.336502 15.059 0H11.106L11.099 15.845C11.0662 16.7033 10.7025 17.5155 10.0842 18.1117C9.4659 18.7078 8.64088 19.0416 7.78199 19.043C7.22599 19.043 6.70199 18.904 6.23999 18.662C6.5468 19.0902 6.95118 19.4391 7.41966 19.68C7.88813 19.9208 8.40723 20.0466 8.93399 20.047ZM20.56 6.381V5.501C19.4958 5.50178 18.4545 5.19175 17.564 4.609C18.3447 5.50816 19.396 6.12992 20.56 6.381Z" fill="#25F4EE"/>
<path d="M17.562 4.61091C16.6889 3.61218 16.2081 2.33045 16.209 1.00391H15.15C15.287 1.73706 15.5714 2.43478 15.986 3.05478C16.4006 3.67479 16.9368 4.20419 17.562 4.61091ZM7.77896 12.3959C6.8977 12.397 6.05284 12.7475 5.4297 13.3707C4.80656 13.9938 4.45601 14.8387 4.45496 15.7199C4.45496 16.9959 5.17896 18.1049 6.23696 18.6609C5.82824 18.0974 5.60809 17.4191 5.60796 16.7229C5.60901 15.8417 5.95956 14.9968 6.5827 14.3737C7.20584 13.7505 8.0507 13.4 8.93196 13.3989C9.27396 13.3989 9.60196 13.4559 9.91196 13.5529V9.51591C9.58728 9.47 9.25986 9.44628 8.93196 9.44491C8.87396 9.44491 8.81696 9.44791 8.75996 9.44891V12.5489C8.44297 12.4482 8.11254 12.3963 7.77996 12.3949L7.77896 12.3959Z" fill="#FE2C55"/>
<path d="M20.556 6.38184V9.45384C18.506 9.45384 16.606 8.79884 15.056 7.68584V15.7208C15.056 19.7338 11.791 22.9978 7.77803 22.9978C6.28523 22.999 4.82864 22.5382 3.60803 21.6788C4.28756 22.4116 5.11113 22.996 6.0271 23.3956C6.94307 23.7952 7.9317 24.0012 8.93103 24.0008C12.944 24.0008 16.208 20.7358 16.208 16.7238V8.68884C17.8103 9.84108 19.7345 10.46 21.708 10.4578V6.50384C21.313 6.50384 20.928 6.46084 20.556 6.38184Z" fill="#FE2C55"/>
<path d="M15.0571 15.7219V7.68691C16.6594 8.83879 18.5836 9.45733 20.5571 9.45491V6.38291C19.3932 6.13196 18.3423 5.51016 17.5621 4.61091C16.9368 4.20423 16.4006 3.67485 15.986 3.05483C15.5714 2.43482 15.287 1.73708 15.1501 1.00391H12.2561L12.2491 16.8489C12.2165 17.7073 11.853 18.5199 11.2346 19.1162C10.6163 19.7126 9.79111 20.0465 8.93205 20.0479C8.40529 20.0475 7.88619 19.9217 7.41772 19.6809C6.94924 19.44 6.54487 19.0911 6.23805 18.6629C5.70111 18.3815 5.25129 17.9587 4.93722 17.4401C4.62315 16.9216 4.45676 16.3271 4.45605 15.7209C4.45711 14.8398 4.80752 13.9951 5.43044 13.372C6.05337 12.7489 6.89797 12.3982 7.77905 12.3969C8.12105 12.3969 8.44905 12.4539 8.76005 12.5509V9.45091C4.82605 9.54291 1.65405 12.7689 1.65405 16.7239C1.65405 18.6369 2.39705 20.3789 3.60805 21.6789C4.82891 22.5387 6.28583 22.9997 7.77905 22.9989C11.7921 22.9989 15.0571 19.7349 15.0571 15.7219Z" fill="black"/>
</svg>
