<svg width="24" height="20" viewBox="0 0 24 20" fill="none" xmlns="http://www.w3.org/2000/svg">
<path d="M21.057 4.78057C21.067 4.99157 21.067 5.19357 21.067 5.40457C21.076 11.8076 16.371 19.1996 7.76698 19.1996C5.22998 19.1996 2.73898 18.4416 0.599976 17.0206C1.82946 17.1689 3.07625 17.0667 4.26519 16.7202C5.45414 16.3737 6.56063 15.7901 7.51797 15.0046C5.51797 14.9666 3.75798 13.6126 3.14698 11.6346C3.84707 11.7792 4.57196 11.7496 5.25797 11.5486C3.08197 11.1076 1.51698 9.11957 1.50798 6.80657V6.74857C2.15598 7.12357 2.88798 7.33457 3.62798 7.35357C1.58198 5.93357 0.942975 3.10057 2.18398 0.883571C4.56398 3.91657 8.06397 5.75057 11.824 5.95157C11.6376 5.12759 11.6639 4.26974 11.9004 3.45873C12.137 2.64772 12.5759 1.9102 13.176 1.31557C15.056 -0.51843 18.02 -0.42243 19.798 1.52557C20.8506 1.31086 21.8568 0.911356 22.77 0.345571C22.4271 1.45546 21.6976 2.40562 20.714 3.02357C21.6422 2.90653 22.5475 2.65102 23.4 2.26557C22.7738 3.23581 21.9805 4.08732 21.057 4.78057Z" fill="#1D9BF0"/>
</svg>
