<svg width="18" height="22" viewBox="0 0 18 22" fill="none" xmlns="http://www.w3.org/2000/svg">
<path d="M6.00403 15.0011L13.204 10.8011L6.00403 6.60107V15.0011Z" fill="white"/>
<path d="M15.058 9.24036C14.706 9.04936 14.369 8.84336 13.972 8.62336C14.369 8.38836 14.737 8.18336 15.089 7.99336C16.726 7.14136 17.629 5.41036 17.353 3.64936C16.955 0.75936 13.482 -0.912641 10.85 0.524359C8.15696 2.00636 5.46396 3.45936 2.80096 4.98436C0.689959 6.20236 0.382958 7.81636 0.719958 9.72436C0.933958 10.9124 1.75996 11.7924 2.84696 12.3944C3.22896 12.5994 3.59696 12.8044 4.00996 13.0404C3.54996 13.3044 3.13796 13.5384 2.69396 13.7594C0.734958 14.9474 0.0619576 17.3824 1.16396 19.3494C2.32696 21.4174 5.01996 22.2094 7.17696 21.0954C9.50591 19.8285 11.827 18.5471 14.14 17.2514C14.69 16.9424 15.272 16.6644 15.762 16.2824C18.225 14.3164 17.858 10.7514 15.058 9.24036ZM6.84096 14.0524V7.64036L12.625 10.8394L6.84096 14.0524Z" fill="#F40407"/>
</svg>
